# xmcd CD database file
#
# Track frame offsets:
#	150
#	22580
#	48403
#	78163
#	110060
#	130915
#	163295
#	191198
#
# Disc length: 3149 seconds
#
# Revision: 1
# Processed by: cddbd v1.5.1PL2 Copyright (c) Steve Scherf et al.
# Submitted via: CDex 1.51
#
DISCID=640c4b08
DTITLE=Bill Evans Trio - Bill Evans - Bill Evans Trio - Consecration - The Last Complete Collection CD3
DYEAR=1980
DGENRE=Jazz
TTITLE0=Tiffany
TTITLE1=Polka Dots and Moonbeams
TTITLE2=Like Someone in Love
TTITLE3=Letter to Evan
TTITLE4=Gary's Theme 
TTITLE5=Days of Wine and Roses
TTITLE6=I Do it for Love
TTITLE7=My Romance
EXTD=YEAR: 1980
EXTT0=
EXTT1=
EXTT2=
EXTT3=
EXTT4=
EXTT5=
EXTT6=
EXTT7=
PLAYORDER=
